# xmcd CD database file
#
# Track frame offsets:
#	150
#	20402
#	41542
#	61425
#	81897
#	109512
#	129887
#	143387
#	156487
#	176600
#	197777
#	210607
#	228805
#	249812
#	275097
#	288927
#
# Disc length: 4132 seconds
#
# Revision: 1
# Processed by: cddbd v1.5.1PL2 Copyright (c) Steve Scherf et al.
# Submitted via: CDex 1.51
#
DISCID=d5102210
DTITLE=Διάφοροι - ΤΑ ΜΕΓΑΛΑ ΚΡΗΤΙΚΑ
DYEAR=1900
DGENRE=
TTITLE0=Μαδάρες μου Χανιώτικες (Βασίλης Σκουλάς)
TTITLE1=Η πρώτη μου αγάπη (Νικηφόρος Αεράκης)
TTITLE2=Ο ναυαγός (Χαρ. Γαργανουράκης)
TTITLE3=Το χωριανάκι (Νίκος Γωνιανάκης)
TTITLE4=Μονοφατσότικες κοντυλιές (Βασίλης Σταυρακάκης)
TTITLE5=Την ώρα που ψυχομαχώ (Γιώργης Στιβακτάκης)
TTITLE6=Οι μαχαιριές (Βασίλης Σκουλάς)
TTITLE7=Λέγε το γειάσου κοπελιά (Δημήτρης Πασπαράκης)
TTITLE8=Τάφο θα κάμω την καρδιά (Ψαραντώνης)
TTITLE9=Η πέτρα (Θανάσης Σκορδαλός)
TTITLE10=Παλιά αγαπητικιά μου (Γιώργης Καλομοίρης)
TTITLE11=Αντίλαλοι του Ψηλορείτη (Νικ. Μανιάς-Βασ. Σκουλάς)
TTITLE12=Ο χωρισμός (Νίκος Σώπασης)
TTITLE13=Βοτάνι λησμονιάς (Μιχάλης Αλεφαντινός)
TTITLE14=Κοντυλιές τση νύχτας (Γιώργης Αβυσσινός)
TTITLE15=Παλιά μεράκια (Μανόλης Μανουράς)
EXTD=
EXTT0=
EXTT1=
EXTT2=
EXTT3=
EXTT4=
EXTT5=
EXTT6=
EXTT7=
EXTT8=
EXTT9=
EXTT10=
EXTT11=
EXTT12=
EXTT13=
EXTT14=
EXTT15=
PLAYORDER=
